<svg width="273" height="160" viewBox="0 0 273 160" fill="none" xmlns="http://www.w3.org/2000/svg">
<g clip-path="url(#clip0)" filter="url(#filter0_dd)">
<rect x="15.6639" y="5.5108" width="241.672" height="129.081" rx="5" fill="url(#paint0_radial)"/>
<mask id="path-2-inside-1" fill="white">
<path fill-rule="evenodd" clip-rule="evenodd" d="M177.23 148.36L284.479 86.4398L264.29 51.4716L242.267 64.1868L177.23 148.36ZM225.465 73.8873L119.075 135.312L139.264 170.28L160.428 158.06L225.465 73.8873Z"/>
</mask>
<path d="M284.479 86.4398L285.115 87.5411L286.216 86.9053L285.58 85.804L284.479 86.4398ZM177.23 148.36L176.224 147.582L177.866 149.461L177.23 148.36ZM264.29 51.4716L265.391 50.8358L264.756 49.7345L263.654 50.3703L264.29 51.4716ZM242.267 64.1868L241.631 63.0856L241.414 63.2109L241.26 63.4094L242.267 64.1868ZM119.075 135.312L118.439 134.21L117.338 134.846L117.974 135.947L119.075 135.312ZM225.465 73.8873L226.471 74.6648L224.829 72.7861L225.465 73.8873ZM139.264 170.28L138.163 170.916L138.799 172.017L139.9 171.381L139.264 170.28ZM160.428 158.06L161.064 159.162L161.281 159.036L161.435 158.838L160.428 158.06ZM283.843 85.3386L176.594 147.259L177.866 149.461L285.115 87.5411L283.843 85.3386ZM263.189 52.1074L283.378 87.0757L285.58 85.804L265.391 50.8358L263.189 52.1074ZM242.902 65.2881L264.926 52.5729L263.654 50.3703L241.631 63.0856L242.902 65.2881ZM241.26 63.4094L176.224 147.582L178.236 149.137L243.273 64.9643L241.26 63.4094ZM119.711 136.413L226.101 74.9886L224.829 72.7861L118.439 134.21L119.711 136.413ZM140.365 169.644L120.176 134.676L117.974 135.947L138.163 170.916L140.365 169.644ZM159.793 156.959L138.628 169.179L139.9 171.381L161.064 159.162L159.793 156.959ZM161.435 158.838L226.471 74.6648L224.459 73.1098L159.422 157.283L161.435 158.838Z" fill="url(#paint1_radial)" mask="url(#path-2-inside-1)"/>
<mask id="path-4-inside-2" fill="white">
<path fill-rule="evenodd" clip-rule="evenodd" d="M47.3673 57.5073L136.924 5.80179L116.735 -29.1665L98.3447 -18.5488L47.3673 57.5073ZM84.3146 -10.4486L-4.52496 40.843L15.664 75.8112L33.3372 65.6076L84.3146 -10.4486Z"/>
</mask>
<path d="M136.924 5.80179L137.56 6.90306L138.661 6.26724L138.025 5.16598L136.924 5.80179ZM47.3673 57.5073L46.311 56.7993L48.0031 58.6086L47.3673 57.5073ZM116.735 -29.1665L117.836 -29.8023L117.2 -30.9035L116.099 -30.2677L116.735 -29.1665ZM98.3447 -18.5488L97.7089 -19.6501L97.4529 -19.5023L97.2884 -19.2568L98.3447 -18.5488ZM-4.52496 40.843L-5.16078 39.7417L-6.26204 40.3775L-5.62623 41.4788L-4.52496 40.843ZM84.3146 -10.4486L85.3709 -9.74056L83.6788 -11.5498L84.3146 -10.4486ZM15.664 75.8112L14.5627 76.4471L15.1985 77.5483L16.2998 76.9125L15.664 75.8112ZM33.3372 65.6076L33.973 66.7089L34.2289 66.5611L34.3935 66.3156L33.3372 65.6076ZM136.288 4.70053L46.7314 56.4061L48.0031 58.6086L137.56 6.90306L136.288 4.70053ZM115.634 -28.5306L135.823 6.43761L138.025 5.16598L117.836 -29.8023L115.634 -28.5306ZM98.9805 -17.4476L117.371 -28.0652L116.099 -30.2677L97.7089 -19.6501L98.9805 -17.4476ZM97.2884 -19.2568L46.311 56.7993L48.4236 58.2153L99.401 -17.8408L97.2884 -19.2568ZM-3.88915 41.9443L84.9504 -9.34729L83.6788 -11.5498L-5.16078 39.7417L-3.88915 41.9443ZM16.7652 75.1754L-3.4237 40.2072L-5.62623 41.4788L14.5627 76.4471L16.7652 75.1754ZM32.7014 64.5063L15.0281 74.71L16.2998 76.9125L33.973 66.7089L32.7014 64.5063ZM34.3935 66.3156L85.3709 -9.74056L83.2583 -11.1566L32.2809 64.8996L34.3935 66.3156Z" fill="url(#paint2_radial)" mask="url(#path-4-inside-2)"/>
<path d="M231.15 23.6685C231.15 28.8822 233.567 31.6927 238.781 31.6927C243.151 31.6927 247.457 29.5567 248.532 25.5251H244.569C243.812 28.5347 240.853 29.9629 236.736 29.0179C235.634 27.5232 234.313 24.4709 234.061 24.2192C234.061 20.3089 234.464 17.2963 237.68 17.2963C240.696 16.8027 242.948 18.4615 244.035 20.8364L235.084 25.5565L235.241 25.8712L244.746 23.7472L248.982 22.7245C248.62 17.8415 244.464 14.779 239.489 14.779C234.275 14.779 231.15 18.4548 231.15 23.6685Z" fill="#EA218D"/>
<path d="M230.222 23.3224C230.222 28.5361 234.448 32.7626 239.662 32.7626C243.743 32.7626 247.686 29.6159 248.709 25.5251H248.394C247.095 27.5896 244.347 29.8519 241.865 29.8519C238.389 29.8519 234.706 26.7051 234.706 22.9291C234.706 19.4533 236.894 16.9503 240.37 16.9503C243.565 16.9503 247.467 19.5424 248.81 22.7717L249.102 22.7088C248.817 17.7514 244.691 13.8822 239.662 13.8822C234.448 13.8822 230.222 18.1087 230.222 23.3224Z" fill="#4D31BF"/>
<path d="M24.6639 41.4724V48.395H31.5866V41.4724H24.6639ZM33.1249 41.4724V43.0108H34.6633V41.4724H33.1249ZM34.6633 43.0108V44.5491H33.1249V47.6258H34.6633V46.0875H36.2017V43.0108H34.6633ZM34.6633 47.6258V49.9334H27.7407V51.4717H26.2023V53.0101H29.279V51.4717H30.8174V53.0101H34.6633V51.4717H36.2017V53.0101H38.5092V51.4717H40.0476V49.9334H36.2017V47.6258H34.6633ZM40.0476 51.4717V53.0101H44.6626V51.4717H43.1243V49.9334H41.5859V51.4717H40.0476ZM26.2023 51.4717V49.9334H24.6639V51.4717H26.2023ZM37.74 41.4724V48.395H44.6626V41.4724H37.74ZM26.2023 43.0108H30.0482V46.8567H26.2023V43.0108ZM39.2784 43.0108H43.1243V46.8567H39.2784V43.0108ZM26.9715 43.7799V46.0875H29.279V43.7799H26.9715ZM40.0476 43.7799V46.0875H42.3551V43.7799H40.0476ZM33.1249 53.7793V55.3176H34.6633V53.7793H33.1249ZM34.6633 55.3176V56.856H33.1249V59.9327H34.6633V58.3944H37.74V56.856H39.2784V55.3176H40.8167V56.856H39.2784V58.3944H37.74V61.4711H39.2784V59.9327H40.8167V58.3944H41.5859V59.9327H40.8167V61.4711H42.3551V59.9327H43.1243V58.3944H44.6626V55.3176H43.1243V53.7793H37.74V55.3176H34.6633ZM43.1243 59.9327V61.4711H44.6626V59.9327H43.1243ZM34.6633 59.9327V61.4711H36.2017V59.9327H34.6633ZM24.6639 54.5485V61.4711H31.5866V54.5485H24.6639ZM26.2023 56.0868H30.0482V59.9327H26.2023V56.0868ZM26.9715 56.856V59.1636H29.279V56.856H26.9715Z" fill="#EDEDED"/>
</g>
<defs>
<filter id="filter0_dd" x="0.66394" y="0.510803" width="271.672" height="159.081" filterUnits="userSpaceOnUse" color-interpolation-filters="sRGB">
<feFlood flood-opacity="0" result="BackgroundImageFix"/>
<feColorMatrix in="SourceAlpha" type="matrix" values="0 0 0 0 0 0 0 0 0 0 0 0 0 0 0 0 0 0 127 0"/>
<feOffset dy="4"/>
<feGaussianBlur stdDeviation="3"/>
<feColorMatrix type="matrix" values="0 0 0 0 0 0 0 0 0 0 0 0 0 0 0 0 0 0 0.05 0"/>
<feBlend mode="normal" in2="BackgroundImageFix" result="effect1_dropShadow"/>
<feColorMatrix in="SourceAlpha" type="matrix" values="0 0 0 0 0 0 0 0 0 0 0 0 0 0 0 0 0 0 127 0"/>
<feOffset dy="10"/>
<feGaussianBlur stdDeviation="7.5"/>
<feColorMatrix type="matrix" values="0 0 0 0 0 0 0 0 0 0 0 0 0 0 0 0 0 0 0.1 0"/>
<feBlend mode="normal" in2="effect1_dropShadow" result="effect2_dropShadow"/>
<feBlend mode="normal" in="SourceGraphic" in2="effect2_dropShadow" result="shape"/>
</filter>
<radialGradient id="paint0_radial" cx="0" cy="0" r="1" gradientUnits="userSpaceOnUse" gradientTransform="translate(15.6639 5.5108) rotate(28.1073) scale(273.984 512.969)">
<stop stop-color="#AFA2E7"/>
<stop offset="1" stop-color="#5C40CE"/>
</radialGradient>
<radialGradient id="paint1_radial" cx="0" cy="0" r="1" gradientUnits="userSpaceOnUse" gradientTransform="translate(294.806 36.8994) rotate(138.917) scale(202.159 368.744)">
<stop stop-color="#BEB3E9"/>
<stop offset="1" stop-color="#462DAF" stop-opacity="0.4"/>
</radialGradient>
<radialGradient id="paint2_radial" cx="0" cy="0" r="1" gradientUnits="userSpaceOnUse" gradientTransform="translate(142.434 -40.958) rotate(136.798) scale(170.159 365.822)">
<stop stop-color="#BEB4E9"/>
<stop offset="1" stop-color="#6044CF" stop-opacity="0.4"/>
</radialGradient>
<clipPath id="clip0">
<rect width="241.672" height="129.081" fill="white" transform="translate(15.6639 5.5108)"/>
</clipPath>
</defs>
</svg>
